<svg viewBox="0 0 67 107" fill="none" xmlns="http://www.w3.org/2000/svg">
<path d="M1.81952 59.9909C1.81952 70.7189 6.35827 75.2576 13.3727 77.527V86.3982H52.9836V77.527C59.7917 75.2576 64.5367 70.7189 64.5367 59.9909C64.5367 53.8017 62.2674 46.1684 58.9664 38.9477L38.3358 59.5783C37.9232 59.9909 37.5106 59.9909 37.0979 59.9909C36.6853 59.9909 36.2727 59.9909 35.8601 59.5783L33.5907 57.309C33.1781 56.8963 33.1781 56.4837 33.1781 56.0711C33.1781 55.6585 33.1781 55.2459 33.5907 55.0396L55.8719 32.7585C51.5394 24.9188 46.1754 17.6981 41.2241 13.572C44.1124 12.953 46.3817 10.4774 46.3817 7.17645C46.3817 3.66924 43.2872 0.574638 39.7799 0.574638H26.5763C22.8628 0.574638 19.9745 3.66924 19.9745 7.17645C19.9745 10.271 22.0376 12.953 24.9259 13.572C13.9916 22.6494 1.81952 44.9306 1.81952 59.9909ZM62.8863 93H3.46997C1.61321 93 0.169067 94.6505 0.169067 96.3009V102.903C0.169067 104.759 1.61321 106.204 3.46997 106.204H62.8863C64.5367 106.204 66.1872 104.759 66.1872 102.903V96.3009C66.1872 94.6505 64.5367 93 62.8863 93Z" fill="black"/>
</svg>
