<?xml version="1.0" encoding="iso-8859-1"?>
<!-- Generator: Adobe Illustrator 19.0.1, SVG Export Plug-In . SVG Version: 6.00 Build 0)  -->
<svg version="1.1" xmlns="http://www.w3.org/2000/svg" xmlns:xlink="http://www.w3.org/1999/xlink" x="0px" y="0px"
	 viewBox="0 0 128 128" style="enable-background:new 0 0 128 128;" xml:space="preserve">
<g id="_x31_">
	<path id="icon" style="fill:#282828;" d="M19.918,19.917v14.701h14.701V19.917H19.918z M34.618,34.618v14.681h14.681V34.618H34.618
		z M49.299,49.299V64H64V49.299H49.299z M49.299,49.299V64H64V49.299H49.299z M49.299,49.299V64H64V49.299H49.299z M49.299,49.299
		V64H64V49.299H49.299z M49.299,49.299V64H64V49.299H49.299z M49.299,49.299V64H64V49.299H49.299z M49.299,49.299V64H64V49.299
		H49.299z M49.299,64H64V49.299H49.299V64z M49.299,19.917v14.701H64V19.917H49.299z M49.299,49.299V64H64V49.299H49.299z
		 M49.299,49.299V64H64V49.299H49.299z M49.299,49.299V64H64V49.299H49.299z M49.299,49.299V64H64V49.299H49.299z M49.299,49.299V64
		H64V49.299H49.299z M49.299,49.299V64H64V49.299H49.299z M49.299,49.299V64H64V49.299H49.299z M49.299,49.299V64H64V49.299H49.299z
		 M64,34.618v14.681h14.701V34.618H64z M78.701,19.917v14.701h14.681V19.917H78.701z M64,34.618v14.681h14.701V34.618H64z
		 M34.618,34.618v14.681h14.681V34.618H34.618z M64,34.618v14.681h14.701V34.618H64z M64,34.618v14.681h14.701V34.618H64z
		 M64,34.618v14.681h14.701V34.618H64z M64,34.618v14.681h14.701V34.618H64z M64,34.618v14.681h14.701V34.618H64z M64,34.618v14.681
		h14.701V34.618H64z M64,34.618v14.681h14.701V34.618H64z M64,34.618v14.681h14.701V34.618H64z M93.382,34.618v14.681h14.701V34.618
		H93.382z M64,49.299h14.701V34.618H64V49.299z M64,34.618v14.681h14.701V34.618H64z M64,34.618v14.681h14.701V34.618H64z
		 M64,34.618v14.681h14.701V34.618H64z M64,34.618v14.681h14.701V34.618H64z M64,34.618v14.681h14.701V34.618H64z M64,34.618v14.681
		h14.701V34.618H64z M34.618,64v14.701h14.681V64H34.618z M34.618,64v14.701h14.681V64H34.618z M19.918,49.299V64h14.701V49.299
		H19.918z M34.618,64v14.701h14.681V64H34.618z M34.618,64v14.701h14.681V64H34.618z M49.299,49.299V64H64V49.299H49.299z
		 M78.701,49.299V64h14.681V49.299H78.701z M78.701,49.299V64h14.681V49.299H78.701z M34.618,64v14.701h14.681V64H34.618z M64,64
		v14.701h14.701V64H64z M64,64v14.701h14.701V64H64z M78.701,49.299V64h14.681V49.299H78.701z M64,64v14.701h14.701V64H64z
		 M78.701,49.299V64h14.681V49.299H78.701z M64,64v14.701h14.701V64H64z M78.701,49.299V64h14.681V49.299H78.701z M64,64v14.701
		h14.701V64H64z M78.701,49.299V64h14.681V49.299H78.701z M64,64v14.701h14.701V64H64z M78.701,49.299V64h14.681V49.299H78.701z
		 M64,64v14.701h14.701V64H64z M93.382,64v14.701h14.701V64H93.382z M64,78.701h14.701V64H64V78.701z M64,64v14.701h14.701V64H64z
		 M78.701,49.299V64h14.681V49.299H78.701z M64,64v14.701h14.701V64H64z M78.701,49.299V64h14.681V49.299H78.701z M64,64v14.701
		h14.701V64H64z M78.701,49.299V64h14.681V49.299H78.701z M64,64v14.701h14.701V64H64z M78.701,49.299V64h14.681V49.299H78.701z
		 M64,64v14.701h14.701V64H64z M78.701,49.299V64h14.681V49.299H78.701z M64,64v14.701h14.701V64H64z M49.299,78.701v14.681H64
		V78.701H49.299z M49.299,78.701v14.681H64V78.701H49.299z M49.299,78.701v14.681H64V78.701H49.299z M19.918,78.701v14.681h14.701
		V78.701H19.918z M49.299,78.701v14.681H64V78.701H49.299z M49.299,78.701v14.681H64V78.701H49.299z M49.299,78.701v14.681H64
		V78.701H49.299z M49.299,78.701v14.681H64V78.701H49.299z M49.299,78.701v14.681H64V78.701H49.299z M78.701,78.701v14.681h14.681
		V78.701H78.701z M34.618,93.382v14.701h14.681V93.382H34.618z M64,64v14.701h14.701V64H64z M64,64v14.701h14.701V64H64z M64,93.382
		v14.701h14.701V93.382H64z M64,64v14.701h14.701V64H64z M78.701,78.701v14.681h14.681V78.701H78.701z M78.701,78.701v14.681h14.681
		V78.701H78.701z M78.701,78.701v14.681h14.681V78.701H78.701z M78.701,78.701v14.681h14.681V78.701H78.701z M93.382,93.382v14.701
		h14.701V93.382H93.382z M78.701,78.701v14.681h14.681V78.701H78.701z M78.701,78.701v14.681h14.681V78.701H78.701z M78.701,78.701
		v14.681h14.681V78.701H78.701z M78.701,78.701v14.681h14.681V78.701H78.701z M0,0v128h128V0H0z M122.221,19.917h-14.138v14.701
		h14.138v14.681h-14.138V64h14.138v14.701h-14.138v14.681h14.138v14.701h-14.138v14.138H93.382v-14.138H78.701v14.138H64v-14.138
		H49.299v14.138H34.618v-14.138H19.918v14.138H5.779v-14.138h14.138V93.382H5.779V78.701h14.138V64H5.779V49.299h14.138V34.618
		H5.779V19.917h14.138V5.779h14.701v14.138h14.681V5.779H64v14.138h14.701V5.779h14.681v14.138h14.701V5.779h14.138V19.917z"/>
</g>
<g id="Layer_1">
</g>
</svg>
