<?xml version="1.0" encoding="iso-8859-1"?>
<!-- Generator: Adobe Illustrator 19.0.1, SVG Export Plug-In . SVG Version: 6.00 Build 0)  -->
<svg version="1.1" xmlns="http://www.w3.org/2000/svg" xmlns:xlink="http://www.w3.org/1999/xlink" x="0px" y="0px"
	 viewBox="0 0 128 128" style="enable-background:new 0 0 128 128;" xml:space="preserve">
<g id="_x31_0">
	<path id="icon_9_" style="fill:#282828;" d="M8.127,114.407H0V17.656c0-2.244,1.819-4.064,4.064-4.064h0
		c2.244,0,4.064,1.819,4.064,4.064V66.71h50.608v47.248h-8.127V74.837H8.127V114.407z M123.936,36.684h-78.44
		c-2.244,0-4.064,1.819-4.064,4.064v0c0,2.244,1.819,4.064,4.064,4.064h32.454v69.08h13.545v-69.08h32.441
		c2.244,0,4.064-1.819,4.064-4.064v0C128,38.504,126.181,36.684,123.936,36.684z"/>
</g>
<g id="Layer_1">
</g>
</svg>
