<?xml version="1.0" encoding="iso-8859-1"?>
<!-- Generator: Adobe Illustrator 19.0.1, SVG Export Plug-In . SVG Version: 6.00 Build 0)  -->
<svg version="1.1" xmlns="http://www.w3.org/2000/svg" xmlns:xlink="http://www.w3.org/1999/xlink" x="0px" y="0px"
	 viewBox="0 0 128 128" style="enable-background:new 0 0 128 128;" xml:space="preserve">
<g id="_x38_">
	<path id="icon_7_" style="fill:#282828;" d="M128,42.098v-10.05h-23.043V29.59h6.401v-6.827H91.729v6.827h6.401v2.457H29.87V29.59
		h7.254v-6.827H15.789v6.827h7.254v2.457H0v10.05h7.254v53.089H0v10.05h128v-10.05h-7.254V42.098H128z M91.729,48.557
		c10.844,0,19.629,8.799,19.629,19.629s-8.784,19.629-19.629,19.629c-10.83,0-19.629-8.799-19.629-19.629
		S80.899,48.557,91.729,48.557z M37.124,48.557c10.83,0,19.629,8.799,19.629,19.629s-8.799,19.629-19.629,19.629
		c-10.844,0-19.629-8.799-19.629-19.629S26.28,48.557,37.124,48.557z M37.123,85.407c-9.495,0-17.22-7.725-17.22-17.22
		s7.725-17.22,17.22-17.22c9.496,0,17.221,7.725,17.221,17.22S46.619,85.407,37.123,85.407z M37.123,52.437
		c-8.684,0-15.749,7.065-15.749,15.749s7.065,15.749,15.749,15.749s15.75-7.065,15.75-15.749S45.807,52.437,37.123,52.437z
		 M91.733,85.407c-9.495,0-17.22-7.725-17.22-17.22s7.725-17.22,17.22-17.22s17.22,7.725,17.22,17.22S101.228,85.407,91.733,85.407z
		 M91.733,52.437c-8.683,0-15.749,7.065-15.749,15.749s7.065,15.749,15.749,15.749s15.749-7.065,15.749-15.749
		S100.416,52.437,91.733,52.437z M48.358,71.092H34.941V55.553h2.943v12.596h10.474V71.092z M98.266,77.041l-8.717-6.695V55.553
		h2.943v13.342l7.567,5.812L98.266,77.041z"/>
</g>
<g id="Layer_1">
</g>
</svg>
