<?xml version="1.0" encoding="iso-8859-1"?>
<!-- Generator: Adobe Illustrator 19.0.1, SVG Export Plug-In . SVG Version: 6.00 Build 0)  -->
<svg version="1.1" xmlns="http://www.w3.org/2000/svg" xmlns:xlink="http://www.w3.org/1999/xlink" x="0px" y="0px"
	 viewBox="0 0 128 128" style="enable-background:new 0 0 128 128;" xml:space="preserve">
<g id="_x39_">
	<path id="icon_8_" style="fill:#282828;" d="M128,20.779l-5.284,29.475c0,0-1.533-2.455-7.992-0.107
		c-6.457,2.35-9.393,10.376-18.2,17.069s-20.902,34.171-22.722,39.573c-1.819,5.402-8.749-5.284-5.931-13.739
		s9.942-24.209,9.629-26.303c-1.927-12.92-17.027-6.459-17.027-6.459l-2.348,3.288c0,0-2.348,10.098-3.405,11.741
		c-1.057,1.645,7.984,28.182,2.934,31c-5.048,2.818-6.575-12.564-9.275-17.848c-2.272-4.446-5.168-13.857-3.054-21.255
		s0-4.814,0-4.814S33.7,69.105,31.705,69.804c-1.996,0.701-15.382,12.208-20.784,14.91C5.518,87.414,1.879,87.766,0,82.952
		c0,0,5.157-3.493,11.29-8.243c-2.094,0.157-4.983-0.18-4.831-3.266c0.178-3.669,11.243-5.078,15.999-7.031
		c1.677-1.58,3.355-2.38,4.668-3.89c9.864-7.75,18.553-12.798,22.193-16.321c3.641-3.523,37.459-17.966,52.255-22.193
		S128,20.779,128,20.779z"/>
</g>
<g id="Layer_1">
</g>
</svg>
