<svg width="74" height="128" viewBox="0 0 74 128" fill="none" xmlns="http://www.w3.org/2000/svg">
<path d="M32.707 10.7128L33.3201 10.0238L32.683 9.3571C31.8397 8.47476 31.314 7.27923 31.314 5.934C31.314 3.20687 33.5127 1 36.232 1C37.4443 1 38.5652 1.4465 39.4143 2.1766C38.8275 6.49001 36.9105 19.0307 36.1987 22.8729C35.5325 26.4674 36.758 29.3092 38.9747 30.1635C40.0885 30.5927 41.3175 30.4366 42.3695 29.7011C43.4029 28.9786 44.2146 27.7408 44.6961 26.0631C45.007 24.9808 45.1796 22.7882 45.2511 20.6334C45.2745 19.9283 45.2874 19.2086 45.2896 18.5088C47.9628 23.3177 50.1799 29.522 50.3628 37.008H22.1172C22.4233 24.4635 28.4352 15.5131 32.707 10.7128ZM25.0259 60.593H48.4301C48.4256 60.6654 48.4211 60.7411 48.4167 60.8201C48.3691 61.6631 48.3249 62.8743 48.3368 64.3592C48.3608 67.3262 48.6092 71.4003 49.5107 75.821C51.2782 84.4894 55.5962 94.6577 65.839 100.272V103.495H7.617V100.272C17.8598 94.6577 22.1778 84.4894 23.9453 75.821C24.8468 71.4003 25.0952 67.3262 25.1192 64.3592C25.1311 62.8743 25.0869 61.6631 25.0393 60.8201C25.0349 60.7411 25.0304 60.6654 25.0259 60.593ZM1 127V122.973H72.455V127H1ZM4.887 107.98H68.569C70.7159 107.98 72.456 109.72 72.456 111.866V118.486H1.001V111.866C1.001 109.72 2.74042 107.98 4.887 107.98ZM55.958 46.228H17.501V41.448H55.958V46.228ZM23.074 51.165H50.381V54.891H23.074V51.165Z" fill="white" stroke="#0F0F0F" stroke-width="2"/>
</svg>
