<svg width="58" height="128" viewBox="0 0 58 128" fill="none" xmlns="http://www.w3.org/2000/svg">
<path d="M28.728 20.694L29.0877 19.7609L28.728 19.6223L28.3684 19.7609L28.728 20.694ZM28.728 20.694L29.0877 19.7609L29.0881 19.7611L29.0899 19.7618L29.0975 19.7647L29.1286 19.7766L29.2524 19.8238C29.3616 19.8653 29.5228 19.9263 29.73 20.0037C29.9981 20.104 30.3429 20.2318 30.751 20.3807V14.007V13.007H31.751H37.959V8.956H31.751H30.751V7.956V1H26.7V7.956V8.956H25.7H19.506V13.007H25.7H26.7V14.007V20.3825C27.1103 20.2329 27.4568 20.1044 27.726 20.0037C27.9332 19.9263 28.0944 19.8653 28.2036 19.8238L28.3274 19.7766L28.3586 19.7647L28.3662 19.7618L28.3679 19.7611L28.3683 19.7609L28.728 20.694ZM56.149 124.336V127H1.30701V124.336H56.149ZM19.8945 66.269H37.5625C37.5572 66.3852 37.5518 66.51 37.5465 66.6433C37.51 67.5621 37.476 68.8805 37.4851 70.4872C37.5035 73.6979 37.6947 78.0731 38.3887 82.7177C39.0819 87.3562 40.2825 92.3043 42.3404 96.6394C44.3099 100.788 47.0946 104.437 51.029 106.674V108.811H6.42801V106.674C10.3622 104.437 13.1468 100.789 15.1162 96.6398C17.1741 92.3047 18.3747 87.3566 19.0679 82.7181C19.762 78.0734 19.9533 73.6981 19.9717 70.4874C19.981 68.8806 19.9469 67.5622 19.9104 66.6434C19.9051 66.5101 19.8998 66.3852 19.8945 66.269ZM30.751 22.5079V28.016H26.7V22.5097C27.4217 22.2502 28.013 22.0317 28.4265 21.8771C28.5409 21.8343 28.6418 21.7964 28.728 21.7638C28.8143 21.7964 28.9151 21.8343 29.0295 21.8771C29.4421 22.0313 30.0316 22.2492 30.751 22.5079ZM11.3027 26.7135C12.2716 26.6338 13.3559 26.4482 14.4642 26.2113C16.5249 25.7708 18.8388 25.1125 20.9965 24.4357C22.3132 24.0227 23.5779 23.6009 24.7 23.2141V29.016V30.016H25.7H31.751H32.751V29.016V23.2123C33.8743 23.5996 35.1408 24.0221 36.4594 24.4357C38.6171 25.1124 40.9308 25.7708 42.9914 26.2113C44.0995 26.4482 45.1836 26.6337 46.1523 26.7135C43.2585 31.2095 41.362 36.1992 40.1662 40.1916C39.4938 42.4364 39.0387 44.3801 38.7514 45.7649C38.6369 46.3165 38.549 46.78 38.4844 47.139H18.9706C18.906 46.78 18.8181 46.3165 18.7036 45.7649C18.4163 44.3801 17.9613 42.4364 17.2888 40.1916C16.093 36.1993 14.1965 31.2095 11.3027 26.7135ZM1.30701 116.573C1.30701 114.452 3.02616 112.734 5.14601 112.734H52.31C54.4297 112.734 56.149 114.453 56.149 116.573V120.412H1.30701V116.573ZM43.383 54.701H14.076V51.454H43.383V54.701ZM39.068 61.405H18.389V58.974H39.068V61.405Z" fill="white" stroke="#0F0F0F" stroke-width="2"/>
</svg>
