<svg width="81" height="128" viewBox="0 0 81 128" fill="none" xmlns="http://www.w3.org/2000/svg">
<path d="M29.7401 16.047L30.129 15.8664L30.2663 15.4605L30.2663 15.4604L30.2663 15.4602L30.2666 15.4595L30.2684 15.4542L30.2766 15.4304C30.284 15.4088 30.2955 15.3757 30.311 15.3318C30.342 15.244 30.3889 15.1131 30.4512 14.9445C30.5759 14.6073 30.7621 14.1198 31.006 13.5255C31.4946 12.3352 32.2114 10.7243 33.1251 9.03648C34.0408 7.34525 35.142 5.59981 36.3938 4.12757C37.3021 3.05926 38.2637 2.1658 39.2624 1.53478L41.1796 15.2782L41.2517 15.7953L41.7173 16.0317L41.7173 16.0317L41.7175 16.0317L41.7186 16.0323L41.7241 16.0351L41.7471 16.0469L41.8403 16.0949C41.9228 16.1375 42.0453 16.2012 42.2032 16.2845C42.519 16.451 42.9761 16.6955 43.538 17.0057C44.6623 17.6263 46.2024 18.5079 47.8661 19.5518C51.2339 21.6649 54.9646 24.3559 56.8684 26.8394L56.8684 26.8395C58.945 29.5479 64.6825 35.3694 69.8323 40.4535C72.4214 43.0095 74.8833 45.3998 76.6977 47.1509C77.6049 48.0265 78.3505 48.7425 78.8694 49.2397C79.0727 49.4345 79.2412 49.5957 79.371 49.7198V55.4892L72.1843 61.0092C71.9344 60.8733 71.6104 60.7 71.2234 60.4992C70.2597 59.9992 68.9025 59.3271 67.3265 58.6378C64.2004 57.2706 60.1127 55.7903 56.5057 55.5129C54.5976 55.3662 52.7784 55.7848 51.1111 56.353C50.0927 56.7 49.0478 57.1365 48.077 57.542C47.5109 57.7785 46.97 58.0044 46.4742 58.196C45.0362 58.7516 43.8519 59.0768 42.836 59.0032C42.3243 58.9661 41.8266 58.8255 41.3399 58.5083C41.3303 58.4983 41.3207 58.4885 41.3112 58.4786C40.9148 58.0698 40.6017 57.7525 40.387 57.5368C40.2797 57.429 40.197 57.3465 40.1408 57.2907L40.0766 57.2271L40.0599 57.2106L40.0554 57.2062L40.0542 57.205C40.0538 57.2047 40.0536 57.2044 39.353 57.918L40.0536 57.2044L38.541 58.5016C39.0045 59.1467 39.5053 59.6549 40.0394 60.0405C40.8078 60.8361 41.8569 61.9433 43.0886 63.2973C45.7339 66.2052 49.2147 70.2438 52.5664 74.7746C55.9223 79.311 59.1254 84.3097 61.237 89.1395C63.2176 93.6697 64.1785 97.9179 63.544 101.456H14.0923C14.0666 101.404 14.0392 101.348 14.0101 101.288C13.7811 100.819 13.4499 100.124 13.045 99.2302C12.2349 97.4419 11.1302 94.8578 9.95688 91.6843C7.60821 85.332 4.99392 76.644 3.90584 67.2646C2.81718 57.8804 3.26352 47.8662 6.97357 38.8171C10.672 29.7963 17.641 21.6643 29.7401 16.047ZM1 127V122.434H73.85V127H1ZM4.886 106.101H69.963C72.1098 106.101 73.85 107.841 73.85 109.987V117.725H1V109.987C1 107.841 2.73942 106.101 4.886 106.101Z" fill="white" stroke="#0F0F0F" stroke-width="2"/>
</svg>
