<svg width="75" height="128" viewBox="0 0 75 128" fill="none" xmlns="http://www.w3.org/2000/svg">
<path d="M73.442 122.47V127H1V122.47H73.442ZM27.0253 54.884H47.4167C47.41 54.9886 47.4033 55.1 47.3967 55.2182C47.3452 56.13 47.2974 57.4404 47.3103 59.0472C47.3362 62.2581 47.6051 66.6666 48.5804 71.4497C50.4957 80.8425 55.1751 91.8473 66.273 97.9086V101.533H8.169V97.9086C19.2669 91.8468 23.9463 80.842 25.8616 71.4493C26.8369 66.6663 27.1058 62.2579 27.1317 59.0471C27.1446 57.4403 27.0968 56.13 27.0453 55.2182C27.0387 55.1 27.032 54.9886 27.0253 54.884ZM55.567 19.3449V19.345C55.567 24.7008 53.2748 29.5203 49.6121 32.876H24.833C21.17 29.5202 18.877 24.7007 18.877 19.345C18.877 9.21132 27.0883 1 37.223 1C47.3519 1 55.568 9.21145 55.567 19.3449ZM4.886 106.226H69.556C71.7017 106.226 73.442 107.966 73.442 110.112V117.775H1V110.112C1 107.966 2.73942 106.226 4.886 106.226ZM55.567 42.916H18.877V37.57H55.567V42.916ZM24.916 46.384H49.526V50.588H24.916V46.384Z" fill="white" stroke="#0F0F0F" stroke-width="2"/>
</svg>
