<svg width="60" height="128" viewBox="0 0 60 128" fill="none" xmlns="http://www.w3.org/2000/svg">
<path d="M20.5435 59.015H38.9125C38.9044 59.2068 38.896 59.4228 38.8878 59.6615C38.8502 60.7487 38.815 62.3086 38.8245 64.2061C38.8435 67.9984 39.0408 73.1522 39.7568 78.5836C40.4719 84.0077 41.7096 89.752 43.8296 94.7045C45.8583 99.4438 48.7383 103.558 52.84 105.908V108.177H6.61602V105.908C10.7178 103.558 13.5978 99.4438 15.6264 94.7045C17.7464 89.752 18.9841 84.0077 19.6992 78.5836C20.4152 73.1522 20.6126 67.9984 20.6315 64.2061C20.641 62.3086 20.6059 60.7487 20.5682 59.6615C20.56 59.4228 20.5516 59.2068 20.5435 59.015ZM35.8585 22.9069L36.3586 23.6586L37.1573 23.2377L37.1573 23.2376L37.1574 23.2376L37.1583 23.2371L37.1625 23.2349L37.1798 23.2258L37.25 23.1892C37.3121 23.1568 37.4043 23.1089 37.5237 23.0475C37.7624 22.9247 38.1095 22.7479 38.5405 22.5329C39.4028 22.1028 40.5987 21.5212 41.9333 20.9153C43.7118 20.1078 45.6861 19.2806 47.4326 18.7014C44.6402 23.1996 42.7859 28.1116 41.5987 32.0747C40.9031 34.3966 40.4325 36.407 40.1353 37.8392C40.0139 38.4246 39.9213 38.9139 39.8541 39.289H19.6019C19.5347 38.9139 19.442 38.4247 19.3206 37.8393C19.0233 36.4072 18.5526 34.3969 17.857 32.075C16.6697 28.1121 14.8154 23.2003 12.0234 18.7018C13.7698 19.2812 15.744 20.1083 17.5224 20.9157C18.857 21.5216 20.053 22.103 20.9155 22.5331C21.3465 22.748 21.6936 22.9248 21.9324 23.0476C22.0518 23.109 22.1441 23.1569 22.2062 23.1892L22.2763 23.2259L22.2937 23.235L22.2978 23.2371L22.2987 23.2376L22.2989 23.2377L22.2989 23.2377L23.0975 23.6585L23.5976 22.9069L29.728 13.6932L35.8585 22.9069ZM1.31702 127V124.174H58.139V127H1.31702ZM1.31802 116.054C1.31802 113.908 3.05744 112.168 5.20402 112.168H54.252C56.3987 112.168 58.139 113.908 58.14 116.054C58.14 116.054 58.14 116.054 58.14 116.054V120.182H1.31802V116.054ZM44.928 47.115H14.53V43.685H44.928V47.115ZM18.994 51.466H40.463V54.051H18.994V51.466ZM34.161 5.433C34.161 7.8816 32.1758 9.866 29.728 9.866C27.2802 9.866 25.295 7.8816 25.295 5.433C25.295 2.9844 27.2802 1 29.728 1C32.1758 1 34.161 2.9844 34.161 5.433Z" fill="white" stroke="#0F0F0F" stroke-width="2"/>
</svg>
