<svg width="86" height="128" viewBox="0 0 86 128" fill="none" xmlns="http://www.w3.org/2000/svg">
<path d="M84.354 121.513V127H1V121.513H84.354ZM27.0703 51.882H58.2837C58.2799 51.9006 58.276 51.9194 58.2721 51.9383C58.102 52.7714 57.8895 53.97 57.7161 55.4477C57.3698 58.3999 57.1776 62.483 57.8004 66.9984C59.0319 75.928 63.462 86.5661 76.134 93.4102V97.799H9.22V93.4102C21.8925 86.5666 26.3226 75.9285 27.554 66.9987C28.1767 62.4833 27.9844 58.4001 27.638 55.4478C27.4646 53.9701 27.2521 52.7714 27.0819 51.9383C27.078 51.9194 27.0742 51.9006 27.0703 51.882ZM54.91 12.576H55.609L55.8492 11.9195L59.843 1H70.0164C69.7282 1.76641 69.3305 2.8243 68.8574 4.08396C67.8539 6.75592 66.5108 10.3359 65.1528 13.9678C62.824 20.1961 60.4219 26.6539 59.6424 28.878H25.7185C24.9386 26.6538 22.5349 20.1959 20.2046 13.9676C18.8457 10.3357 17.5018 6.75571 16.4976 4.08376C16.0242 2.82421 15.6263 1.7664 15.3379 1H25.5176L29.5047 11.919L29.7446 12.576H30.444H34.98H35.98V11.576V1H49.381V11.576V12.576H50.381H54.91ZM4.886 102.888H80.468C82.6137 102.888 84.354 104.628 84.354 106.774V116.423H1V106.774C1 104.628 2.73942 102.888 4.886 102.888ZM26.601 43.345H58.754V47.25H26.601V43.345ZM26.601 33.35H58.754V38.345H26.601V33.35Z" fill="white" stroke="#0F0F0F" stroke-width="2"/>
</svg>
