<svg width="74" height="128" viewBox="0 0 74 128" fill="none" xmlns="http://www.w3.org/2000/svg">
<path d="M21.105 38.008C21.105 24.606 27.482 15.08 31.96 10.048C30.947 8.988 30.314 7.548 30.314 5.934C30.314 2.658 32.957 0 36.232 0C37.893 0 39.413 0.696 40.473 1.804C39.982 5.554 37.928 19.028 37.182 23.055C35.937 29.772 41.982 31.895 43.735 25.787C44.277 23.9 44.429 17.517 44.16 14.764C47.831 20.191 51.375 28.024 51.375 38.008H21.105V38.008ZM73.456 121.973H0V128H73.455V121.973H73.456ZM68.569 106.98H4.887C2.188 106.98 0.00100136 109.168 0.00100136 111.866V119.486H73.456V111.866C73.456 109.168 71.268 106.98 68.569 106.98ZM16.501 40.448V47.228H56.958V40.448H16.501ZM51.382 50.165H22.074V55.891H51.381V50.165H51.382ZM49.511 59.593C49.511 59.593 46.347 88.975 66.839 99.673V104.495H6.617V99.673C27.109 88.975 23.945 59.593 23.945 59.593H49.511Z" fill="black"/>
</svg>
