<svg width="58" height="128" viewBox="0 0 58 128" fill="none" xmlns="http://www.w3.org/2000/svg">
<path d="M57.149 128H0.307007V123.336H57.149V128V128ZM52.31 111.734H5.14601C2.47401 111.734 0.307007 113.9 0.307007 116.573V121.412H57.149V116.573C57.149 113.901 54.982 111.734 52.31 111.734ZM13.076 50.454V55.701H44.383V50.454H13.076ZM40.067 57.974H17.389V62.405H40.068V57.974H40.067ZM38.62 65.269C38.62 65.269 36.171 97.801 52.029 106.08V109.811H5.42801V106.08C21.285 97.802 18.837 65.269 18.837 65.269H38.62ZM28.728 20.694C28.728 20.694 13.758 26.464 9.39201 25.684C16.253 35.196 18.124 48.139 18.124 48.139H39.331C39.331 48.139 41.202 35.196 48.063 25.684C43.698 26.464 28.728 20.694 28.728 20.694ZM31.751 7.956V0H25.7V7.956H18.506V14.007H25.7V29.016H31.751V14.007H38.959V7.956H31.751Z" fill="black"/>
</svg>
