<svg width="81" height="128" viewBox="0 0 81 128" fill="none" xmlns="http://www.w3.org/2000/svg">
<path d="M13.475 102.456C13.475 102.456 -19.973 38.025 29.319 15.14C29.319 15.14 33.544 2.641 40.058 0L42.17 15.14C42.17 15.14 53.613 20.949 57.662 26.231C61.711 31.512 80.371 49.292 80.371 49.292V55.982L72.273 62.202C72.273 62.202 63.295 57.038 56.429 56.51C49.563 55.982 43.402 63.552 39.353 57.918C39.353 57.918 68.4 86.437 64.351 102.456H13.475ZM74.85 121.434H0V128H74.85V121.434ZM69.963 105.101H4.886C2.187 105.101 0 107.289 0 109.987V118.725H74.85V109.987C74.85 107.289 72.662 105.101 69.963 105.101Z" fill="black"/>
</svg>
