<svg width="75" height="128" viewBox="0 0 75 128" fill="none" xmlns="http://www.w3.org/2000/svg">
<path d="M74.442 128H0V121.47H74.442V128ZM69.556 105.226H4.886C2.187 105.226 0 107.414 0 110.112V118.775H74.442V110.112C74.442 107.414 72.254 105.226 69.556 105.226ZM17.877 36.57V43.916H56.567V36.57H17.877ZM50.526 45.384H23.916V51.588H50.526V45.384ZM48.499 53.884C48.499 53.884 45.071 85.718 67.273 97.309V102.533H7.169V97.309C29.371 85.717 25.943 53.884 25.943 53.884H48.499ZM37.223 0C26.536 0 17.877 8.659 17.877 19.345C17.877 25.134 20.419 30.33 24.45 33.876H49.995C54.026 30.33 56.567 25.134 56.567 19.345C56.568 8.659 47.904 0 37.223 0Z" fill="black"/>
</svg>
