<svg width="60" height="128" viewBox="0 0 60 128" fill="none" xmlns="http://www.w3.org/2000/svg">
<path d="M59.139 128H0.317017V123.174H59.139V128ZM54.252 111.168H5.20402C2.50502 111.168 0.318016 113.356 0.318016 116.054V121.182H59.14V116.054C59.139 113.356 56.951 111.168 54.252 111.168ZM13.53 42.685V48.115H45.928V42.685H13.53ZM41.462 50.466H17.994V55.051H41.463V50.466H41.462ZM39.964 58.015C39.964 58.015 37.43 96.749 53.84 105.316V109.177H5.61602V105.316C22.026 96.749 19.492 58.015 19.492 58.015H39.964ZM36.691 22.353L29.728 11.888L22.765 22.353C22.765 22.353 14.236 17.859 9.71802 17.052C16.818 26.896 18.755 40.289 18.755 40.289H40.701C40.701 40.289 42.637 26.895 49.738 17.052C45.219 17.858 36.691 22.353 36.691 22.353ZM29.728 10.866C32.728 10.866 35.161 8.434 35.161 5.433C35.161 2.432 32.728 0 29.728 0C26.728 0 24.295 2.432 24.295 5.433C24.295 8.434 26.728 10.866 29.728 10.866Z" fill="black"/>
</svg>
