<svg width="86" height="128" viewBox="0 0 86 128" fill="none" xmlns="http://www.w3.org/2000/svg">
<path d="M85.354 128H0V120.513H85.354V128ZM80.468 101.888H4.886C2.187 101.888 0 104.076 0 106.774V117.423H85.354V106.774C85.354 104.076 83.166 101.888 80.468 101.888ZM25.601 42.345V48.25H59.754V42.345H25.601ZM25.601 32.35V39.345H59.754V32.35H25.601ZM59.54 50.882C59.54 50.882 51.678 79.519 77.134 92.809V98.799H8.22V92.809C33.677 79.52 25.814 50.882 25.814 50.882H59.54ZM59.144 0L54.91 11.576H50.381V0H34.98V11.576H30.444L26.217 0H13.893C13.893 0 24.524 28.222 25 29.878H60.361C60.837 28.222 71.461 0 71.461 0H59.144Z" fill="black"/>
</svg>
